<svg height="56" viewBox="0 0 56 56" width="56" xmlns="http://www.w3.org/2000/svg" fill="#96A3DD" title="Alchemy">
  <g id="Page-1">
    <g id="091---Alchemy-Symbol" fill-rule="nonzero">
      <path id="Shape" d="m19 26.006-5.974 9.994h5.974z" />
      <path id="Shape" d="m28 10.949-6.008 10.051h12.016z" />
      <circle id="Oval" cx="28" cy="30" r="2" />
      <path id="Shape" d="m28 8c2.209139 0 4-1.790861 4-4s-1.790861-4-4-4-4 1.790861-4 4 1.790861 4 4 4zm0-5c.5522847 0 1 .44771525 1 1s-.4477153 1-1 1-1-.44771525-1-1 .4477153-1 1-1z" />
      <path id="Shape" d="m5.742 22.26c1.02546342.3143977 1.94806493.8975841 2.672 1.689 1.6296124-7.806157 7.728843-13.9053876 15.535-15.535-.7916411-.72414869-1.3748526-1.64713527-1.689-2.673-8.1055216 2.08368447-14.43480622 8.4133523-16.518 16.519z" />
      <path id="Shape" d="m10 28c-.00066179 2.3588905.4649269 4.6946502 1.37 6.873l14.812-24.781c-9.1841226.9444521-16.1699966 8.6754514-16.182 17.908z" />
      <path id="Shape" d="m35 23h-14v13h14zm-7 11c-2.209139 0-4-1.790861-4-4s1.790861-4 4-4 4 1.790861 4 4-1.790861 4-4 4z" />
      <path id="Shape" d="m42.974 36-5.974-9.994v9.994z" />
      <path id="Shape" d="m52.256 22.013c.7515512.0303821 1.4905595.2027495 2.178.508-2.2424751-10.5056267-10.4493733-18.71252494-20.955-20.955.3051508.68712239.4775165 1.42578437.508 2.177 9.0141525 2.21739716 16.0520962 9.2557262 18.269 18.27z" />
      <path id="Shape" d="m48.142 27h7.716c-.4490235-1.7642024-2.0375517-2.9990647-3.858-2.9990647s-3.4089765 1.2348623-3.858 2.9990647z" />
      <path id="Shape" d="m47.586 23.949c.7239351-.7914159 1.6465366-1.3746023 2.672-1.689-2.0831938-8.1056477-8.4124784-14.43531553-16.518-16.519-.3141474 1.02586473-.8973589 1.94885131-1.689 2.673 7.806157 1.6296124 13.9053876 7.728843 15.535 15.535z" />
      <path id="Shape" d="m46 28c-.0120034-9.2325486-6.9978774-16.9635479-16.182-17.908l14.812 24.781c.9050731-2.1783498 1.3706618-4.5141095 1.37-6.873z" />
      <path id="Shape" d="m42.956 38h-29.912c3.3353011 4.9983215 8.9470524 8.000097 14.956 8.000097s11.6206989-3.0017755 14.956-8.000097z" />
      <path id="Shape" d="m29 55.858c1.3993145-.3658904 2.4921096-1.4586855 2.858-2.858h-2.858z" />
      <path id="Shape" d="m27 55.858v-2.858h-2.858c.3658904 1.3993145 1.4586855 2.4921096 2.858 2.858z" />
      <path id="Shape" d="m29 48.142v2.858h2.858c-.3658904-1.3993145-1.4586855-2.4921096-2.858-2.858z" />
      <path id="Shape" d="m24.142 51h2.858v-2.858c-1.3993145.3658904-2.4921096 1.4586855-2.858 2.858z" />
      <path id="Shape" d="m33.987 52.257c-.0304835.7512156-.2028492 1.4898776-.508 2.177 10.5056267-2.2424751 18.7125249-10.4493733 20.955-20.955-.6874405.3052505-1.4264488.4776179-2.178.508-2.2169038 9.0142738-9.2548475 16.0526028-18.269 18.27z" />
      <path id="Shape" d="m52 32c1.8184116-.0068148 3.4034067-1.2393149 3.858-3h-7.716c.4545933 1.7606851 2.0395884 2.9931852 3.858 3z" />
      <path id="Shape" d="m50.258 33.74c-1.0254634-.3143977-1.9480649-.8975841-2.672-1.689-1.6288955 7.8065445-7.7284555 13.9061045-15.535 15.535.7916411.7241487 1.3748526 1.6471353 1.689 2.673 8.1055216-2.0836845 14.4348062-8.4133523 16.518-16.519z" />
      <circle id="Oval" cx="4" cy="28" r="4" />
      <path id="Shape" d="m22.013 3.743c.0304835-.75121563.2028492-1.48987761.508-2.177-10.5056267 2.24247506-18.71252494 10.4493733-20.955 20.955.68744046-.3052505 1.42644883-.4776179 2.178-.508 2.21690376-9.0142738 9.2548475-16.05260284 18.269-18.27z" />
      <path id="Shape" d="m8.414 32.051c-.72393507.7914159-1.64653658 1.3746023-2.672 1.689 2.08319378 8.1056477 8.4124784 14.4353155 16.518 16.519.3141474-1.0258647.8973589-1.9488513 1.689-2.673-7.8066737-1.6286565-13.9063435-7.7283263-15.535-15.535z" />
      <path id="Shape" d="m3.744 33.987c-.75155117-.0303821-1.49055954-.2027495-2.178-.508 2.24247506 10.5056267 10.4493733 18.7125249 20.955 20.955-.3051508-.6871224-.4775165-1.4257844-.508-2.177-9.0141525-2.2173972-16.05209624-9.2557262-18.269-18.27z" />
    </g>
  </g>
</svg>