<svg height="512" viewBox="0 0 56 42" width="512" xmlns="http://www.w3.org/2000/svg" fill="#96A3DD" title="Eye">
  <g id="Page-1">
    <g id="012---Hypnotised-Eye">
      <path id="Shape" d="m28 14c-4.1584873-.005122-7.8849508 2.567114-9.3547195 6.4572069-1.4697686 3.890093-.3752113 8.283824 2.7477195 11.0297931-2.2861899-3.8947854-1.7000513-8.8352713 1.434-12.087 1.4730953-1.5308368 3.5060068-2.3958762 5.6305-2.3958762s4.1574047.8650394 5.6305 2.3958762c2.5419287 2.6492004 2.5419287 6.8317996 0 9.481-1.010278 1.0498718-2.4044851 1.6431288-3.8615 1.6431288s-2.851222-.593257-3.8615-1.6431288c-1.7612035-1.8355217-1.7612035-4.7334783 0-6.569.3898934-.3577008.9909492-.3497702 1.3712691.0180932s.4082545.9683221.0637309 1.3699068c-1.0129785 1.0567909-1.0129785 2.7242091 0 3.781 1.3426064 1.336936 3.5133936 1.336936 4.856 0 1.7940924-1.8699261 1.7940924-4.8220739 0-6.692-1.0963991-1.1441156-2.6123576-1.7910403-4.197-1.7910403s-3.1006009.6469247-4.197 1.7910403c-3.0132775 3.1475519-3.0084253 8.1113452.011 11.253.9503872 1.1000395 2.2819312 1.7995735 3.727 1.958 5.5228475 0 10-4.4771525 10-10s-4.4771525-10-10-10z" />
      <path id="Shape" d="m28 6c-9.9411255 0-18 8.0588745-18 18s8.0588745 18 18 18 18-8.0588745 18-18c-.0115721-9.9363282-8.0636718-17.98842786-18-18zm0 30c-6.627417 0-12-5.372583-12-12s5.372583-12 12-12 12 5.372583 12 12c-.0071648 6.624447-5.375553 11.9928352-12 12z" />
      <path id="Shape" d="m12.253 11.713c-4.55051105 3.3028476-8.60639656 7.2381845-12.045 11.687-.27710939.3520065-.27710939.8479935 0 1.2 3.43919456 4.4482872 7.49499912 8.3835457 12.045 11.687-5.67073614-7.2098921-5.67073614-17.3641079 0-24.574z" />
      <path id="Shape" d="m43.747 11.713c5.6707361 7.2098921 5.6707361 17.3641079 0 24.574 3.5510573-2.5543496 6.7946269-5.5110112 9.666-8.811-1.8840024-1.9344077-1.8840024-5.0175923 0-6.952-2.8711099-3.300246-6.1147109-6.2569363-9.666-8.811z" />
      <path id="Shape" d="m55.792 23.4c-.289-.373-.647-.825-1.068-1.336-.9653935 1.1109027-.9653935 2.7630973 0 3.874.421-.511.779-.963 1.068-1.336.2781604-.3523889.2781604-.8496111 0-1.202z" />
      <path id="Shape" d="m28 0c-8.232 0-16.753 3.784-25.327 11.246-.4164227.3628511-.45985108.9945773-.097 1.411s.9945773.4598511 1.411.097c8.198-7.136 16.277-10.754 24.013-10.754s15.815 3.618 24.013 10.754c.2693783.2347235.6435175.3079054.9814832.1919787.3379656-.1159267.5884126-.4033499.657-.754.0685873-.3506502-.0551049-.7112552-.3244832-.9459787-8.574-7.462-17.095-11.246-25.327-11.246z" />
    </g>
  </g>
</svg>