<?xml version="1.0" encoding="iso-8859-1" ?>
<!-- Generator: Adobe Illustrator 19.0.0, SVG Export Plug-In . SVG Version: 6.00 Build 0)  -->
<svg version="1.1" id="Capa_1" xmlns="http://www.w3.org/2000/svg" xmlns:xlink="http://www.w3.org/1999/xlink" x="0px" y="0px" viewBox="0 0 512.001 512.001" style="enable-background:new 0 0 512.001 512.001;" xml:space="preserve" fill="#96A3DD" title="Skull">
	<g>
		<g>
			<path d="M478.506,222.298c0-59.433-23.144-115.31-65.17-157.336C377.894,29.52,332.601,7.508,283.63,1.481l-25.529,32.477
			l37.216,38.917l-46.569,41.605l60.418,60.419l-21.223,21.223L256,164.176l-31.944,31.944l-21.223-21.223l31.944-31.944
			l-29.703-29.703l47.093-42.072l-33.754-35.296L246.619,0C190.707,2.304,138.472,25.156,98.665,64.962
			c-42.026,42.026-65.17,97.902-65.17,157.336c0,28.071,5.148,55.379,15.31,81.251c-2.269,9.016-3.418,18.29-3.418,27.645
			c0,58.868,45.107,107.398,102.575,112.839v67.968H185.3v-42.616h30.013v42.616h25.679v-42.616h30.014v42.616h25.679v-42.616
			h30.014v42.616h37.339v-67.968c57.468-5.44,102.575-53.971,102.575-112.839c0-9.355-1.148-18.629-3.417-27.645
			C473.357,277.677,478.506,250.369,478.506,222.298z M158.734,392.959c-34.057,0-61.766-27.708-61.766-61.765
			c0-34.058,27.707-61.766,61.766-61.766c34.058,0,61.766,27.708,61.766,61.766C220.5,365.252,192.791,392.959,158.734,392.959z
			 M271.008,415.733h-30.014v-44.015h30.014V415.733z M353.268,392.959c-34.058,0-61.766-27.708-61.766-61.765
			c0-34.058,27.707-61.766,61.766-61.766c34.058,0,61.766,27.708,61.766,61.766C415.034,365.252,387.326,392.959,353.268,392.959z" />
		</g>
	</g>
	<g></g>
	<g></g>
	<g></g>
	<g></g>
	<g></g>
	<g></g>
	<g></g>
	<g></g>
	<g></g>
	<g></g>
	<g></g>
	<g></g>
	<g></g>
	<g></g>
	<g></g>
</svg>