<svg id="magic-wand" enable-background="new 0 0 300 300" height="512" viewBox="0 0 300 300" width="512" xmlns="http://www.w3.org/2000/svg" fill="#96A3DD" title="Wand">
  <g>
    <circle cx="182.901" cy="217.549" r="4" />
    <circle cx="210.901" cy="149.549" r="4" />
    <circle cx="158.901" cy="201.549" r="4" />
    <circle cx="114.901" cy="77.549" r="4" />
    <circle cx="110.901" cy="37.549" r="4" />
    <path d="m233.729 178.033c.781.781 1.805 1.172 2.828 1.172s2.047-.391 2.828-1.172c1.562-1.562 1.562-4.094 0-5.656l-2.828-2.828 2.828-2.828c1.562-1.562 1.562-4.094 0-5.656s-4.094-1.562-5.656 0l-2.828 2.828-2.828-2.828c-1.562-1.562-4.094-1.562-5.656 0s-1.562 4.094 0 5.656l2.828 2.828-2.828 2.828c-1.562 1.562-1.562 4.094 0 5.656.781.781 1.805 1.172 2.828 1.172s2.047-.391 2.828-1.172l2.828-2.828z" />
    <path d="m122.417 122.033c.781.781 1.805 1.172 2.828 1.172s2.047-.391 2.828-1.172l2.828-2.828 2.828 2.828c.781.781 1.805 1.172 2.828 1.172s2.047-.391 2.828-1.172c1.562-1.562 1.562-4.094 0-5.656l-2.828-2.828 2.828-2.828c1.562-1.562 1.562-4.094 0-5.656s-4.094-1.562-5.656 0l-2.828 2.828-2.828-2.828c-1.562-1.562-4.094-1.562-5.656 0s-1.562 4.094 0 5.656l2.828 2.828-2.828 2.828c-1.563 1.562-1.563 4.094 0 5.656z" />
    <path d="m221.729 66.033c.781.781 1.805 1.172 2.828 1.172s2.047-.391 2.828-1.172c1.562-1.562 1.562-4.094 0-5.656l-2.828-2.828 2.828-2.828c1.562-1.562 1.562-4.094 0-5.656s-4.094-1.562-5.656 0l-2.828 2.828-2.828-2.828c-1.562-1.562-4.094-1.562-5.656 0s-1.562 4.094 0 5.656l2.828 2.828-2.828 2.828c-1.562 1.562-1.562 4.094 0 5.656.781.781 1.805 1.172 2.828 1.172s2.047-.391 2.828-1.172l2.828-2.828z" />
    <path d="m154.901 61.549c2.211 0 4-1.791 4-4v-12c0-2.209-1.789-4-4-4s-4 1.791-4 4v12c0 2.209 1.789 4 4 4z" />
    <path d="m154.901 69.549c-2.211 0-4 1.791-4 4v12c0 2.209 1.789 4 4 4s4-1.791 4-4v-12c0-2.209-1.789-4-4-4z" />
    <path d="m134.901 69.549h12c2.211 0 4-1.791 4-4s-1.789-4-4-4h-12c-2.211 0-4 1.791-4 4s1.789 4 4 4z" />
    <path d="m162.901 69.549h12c2.211 0 4-1.791 4-4s-1.789-4-4-4h-12c-2.211 0-4 1.791-4 4s1.789 4 4 4z" />
    <path d="m78.901 129.549c0 6.617 5.383 12 12 12s12-5.383 12-12-5.383-12-12-12-12 5.383-12 12zm16 0c0 2.205-1.793 4-4 4s-4-1.795-4-4 1.793-4 4-4 4 1.795 4 4z" />
    <path d="m198.901 169.549c-6.617 0-12 5.383-12 12s5.383 12 12 12 12-5.383 12-12-5.383-12-12-12zm0 16c-2.207 0-4-1.795-4-4s1.793-4 4-4 4 1.795 4 4-1.793 4-4 4z" />
    <path d="m242.901 205.549c-6.617 0-12 5.383-12 12s5.383 12 12 12 12-5.383 12-12-5.383-12-12-12zm0 16c-2.207 0-4-1.795-4-4s1.793-4 4-4 4 1.795 4 4-1.793 4-4 4z" />
    <path d="m82.901 85.549c6.617 0 12-5.383 12-12s-5.383-12-12-12-12 5.383-12 12 5.383 12 12 12zm0-16c2.207 0 4 1.795 4 4s-1.793 4-4 4-4-1.795-4-4 1.793-4 4-4z" />
    <path d="m210.323 112.252c0-2.367-.922-4.592-2.594-6.266l-7.266-7.268c-3.344-3.348-9.188-3.348-12.531 0l-30.406 30.41-116.926 109.308c-2.324 2.172-3.598 5.24-3.496 8.418.105 3.18 1.574 6.16 4.035 8.176l10.918 8.945c2.027 1.66 4.504 2.477 6.977 2.477 2.91 0 5.809-1.129 7.949-3.344l110.242-114.086 30.504-30.504c1.676-1.674 2.594-3.899 2.594-6.266zm-149.09 145.295c-1.113 1.146-2.879 1.244-4.105.24l-10.918-8.945c-.926-.76-1.094-1.734-1.109-2.248-.016-.512.086-1.494.961-2.312l114.1-106.669 8.629 8.63zm140.84-144.686-27.675 27.677-8.486-8.487 27.676-27.676c.168-.168.391-.252.609-.252s.441.084.609.252l7.266 7.27v.002c.207.207.25.443.25.605s-.042.4-.249.609z" />
    <path d="m242.901 109.549c2.211 0 4-1.791 4-4v-8c0-2.209-1.789-4-4-4s-4 1.791-4 4v8c0 2.209 1.789 4 4 4z" />
    <path d="m242.901 117.549c-2.211 0-4 1.791-4 4v8c0 2.209 1.789 4 4 4s4-1.791 4-4v-8c0-2.209-1.789-4-4-4z" />
    <path d="m222.901 113.549c0 2.209 1.789 4 4 4h8c2.211 0 4-1.791 4-4s-1.789-4-4-4h-8c-2.211 0-4 1.791-4 4z" />
    <path d="m258.901 109.549h-8c-2.211 0-4 1.791-4 4s1.789 4 4 4h8c2.211 0 4-1.791 4-4s-1.789-4-4-4z" />
  </g>
</svg>